HIERARCHY
ROOT root
{
	OFFSET	0	13.1	24.9
	CHANNELS 6  Xposition Yposition Zposition Xrotation Yrotation Zrotation
	JOINT spine_1
	{
		OFFSET	0	9.99999	0
		CHANNELS 3  Xrotation Yrotation Zrotation
		JOINT spine_2
		{
			OFFSET	0	112	-10
			CHANNELS 3  Xrotation Yrotation Zrotation
			JOINT spine_3
			{
				OFFSET	0	206.5	19.3
				CHANNELS 3  Xrotation Yrotation Zrotation
				JOINT spine_4
				{
					OFFSET	0	110.4	14.6
					CHANNELS 3  Xrotation Yrotation Zrotation
					JOINT neck_1
					{
						OFFSET	0	71.8	-50.3
						CHANNELS 3  Xrotation Yrotation Zrotation
						JOINT neck_2
						{
							OFFSET	0	86.2	-25.8
							CHANNELS 3  Xrotation Yrotation Zrotation
							JOINT head_ee
							{
								OFFSET	0	179.8	-8.7
								CHANNELS 3  Xrotation Yrotation Zrotation
								End Site
								{
									OFFSET	1	0	0
								}
							}
						}
					}
					JOINT left_clavicle
					{
						OFFSET	-43.2	22.4	-70.8
						CHANNELS 3  Xrotation Yrotation Zrotation
						JOINT left_shoulder
						{
							OFFSET	-93.9	-5.79999	48.7
							CHANNELS 3  Xrotation Yrotation Zrotation
							JOINT left_elbow
							{
								OFFSET	-291.4	-30.8	15.2
								CHANNELS 3  Xrotation Yrotation Zrotation
								JOINT left_lowarm_twist
								{
									OFFSET	-110.7	-3.89999	13.6
									CHANNELS 3  Xrotation Yrotation Zrotation
									JOINT left_hand
									{
										OFFSET	-110.7	-3.89999	13.6
										CHANNELS 3  Xrotation Yrotation Zrotation
										JOINT left_ee
										{
											OFFSET	-80.8	-5.10001	12.1
											CHANNELS 3  Xrotation Yrotation Zrotation
											End Site
											{
												OFFSET	1	0	0
											}
										}
									}
								}
							}
						}
					}
					JOINT right_clavicle
					{
						OFFSET	43.2	22.4	-70.8
						CHANNELS 3  Xrotation Yrotation Zrotation
						JOINT right_shoulder
						{
							OFFSET	93.9	-5.79999	48.7
							CHANNELS 3  Xrotation Yrotation Zrotation
							JOINT right_elbow
							{
								OFFSET	291.4	-30.8	15.2
								CHANNELS 3  Xrotation Yrotation Zrotation
								JOINT right_lowarm_twist
								{
									OFFSET	110.7	-3.89999	13.6
									CHANNELS 3  Xrotation Yrotation Zrotation
									JOINT right_hand
									{
										OFFSET	110.7	-3.89999	13.6
										CHANNELS 3  Xrotation Yrotation Zrotation
										JOINT right_ee
										{
											OFFSET	80.8	-5.10001	12.1
											CHANNELS 3  Xrotation Yrotation Zrotation
											End Site
											{
												OFFSET	1	0	0
											}
										}
									}
								}
							}
						}
					}
				}
			}
		}
	}
	JOINT left_hip
	{
		OFFSET	-82.8	-127.5	0.300001
		CHANNELS 3  Xrotation Yrotation Zrotation
		JOINT left_knee
		{
			OFFSET	-28.2	-396.7	2.2
			CHANNELS 3  Xrotation Yrotation Zrotation
			JOINT left_ankle
			{
				OFFSET	-11.7	-411.3	35.4
				CHANNELS 3  Xrotation Yrotation Zrotation
				JOINT left_toes
				{
					OFFSET	0	-60	-88.6
					CHANNELS 3  Xrotation Yrotation Zrotation
					JOINT left_foot_ee
					{
						OFFSET	-22.5	-16.5	-42.2
						CHANNELS 3  Xrotation Yrotation Zrotation
						End Site
						{
							OFFSET	1	0	0
						}
					}
				}
			}
		}
	}
	JOINT right_hip
	{
		OFFSET	82.8	-127.5	0.300001
		CHANNELS 3  Xrotation Yrotation Zrotation
		JOINT right_knee
		{
			OFFSET	28.2	-396.7	2.2
			CHANNELS 3  Xrotation Yrotation Zrotation
			JOINT right_ankle
			{
				OFFSET	11.7	-411.3	35.4
				CHANNELS 3  Xrotation Yrotation Zrotation
				JOINT right_toes
				{
					OFFSET	0	-60	-88.6
					CHANNELS 3  Xrotation Yrotation Zrotation
					JOINT right_foot_ee
					{
						OFFSET	22.5	-16.5	-42.2
						CHANNELS 3  Xrotation Yrotation Zrotation
						End Site
						{
							OFFSET	1	0	0
						}
					}
				}
			}
		}
	}
}
MOTION
Frames: 5
Frame Time: 0.02
3177.02 653.055 -1669.29 11.1228827781 21.3072860845 -3.45699813087 -8.58406 0.0863933 0.934773 -8.58358 0.0267388 0.938376 -8.58191 -0.306929 0.887167 -8.58297 -0.162972 0.924503 -9.90926 19.6867 9.93941 -9.94959 30.4834 14.5825 -0.0 0.0 -0.0 7.59355 9.19177 14.4892 7.7936 -10.491 49.0023 3.95552 -62.9448 2.42192 -31.5087 -2.09665 3.38656 1.39335 -12.4585 4.09359 -0.0 0.0 -0.0 11.5841 20.1045 -22.9748 -11.8957 22.2935 -50.5053 0.509382 14.1622 -0.0632766 -11.2372 0.528629 -1.33364 6.3014 -22.1066 -54.975 0.0 0.0 0.0 14.43 25.7288 -16.3351 7.35163 -0.37174 -1.06565 -17.6369 -20.1583 3.02507 -4.21376 0.0 0.0 -0.0 0.0 -0.0 -21.681 21.8488 8.69405 -21.8551 -0.268986 -3.32275 37.2158 32.2325 5.7991 -7.7822 0.0 0.0 0.0 0.0 0.0 
3143.61785368 668.928 -1685.63951747 10.543897618 23.84468986 -2.91146590828 -8.18157 0.0243709 1.01471 -8.181 -0.0402438 1.01421 -8.18045 -0.38986 0.937152 -8.1816 -0.236969 0.986956 -10.0104 17.6592 11.3724 -9.87131 25.6751 15.4119 -0.0 0.0 -0.0 7.977 10.8665 15.081 4.30382 -10.5432 50.0277 3.84901 -62.3072 2.32734 -35.5341 -2.48922 3.72182 1.06956 -8.15881 3.76037 -0.0 0.0 -0.0 12.1512 20.4239 -24.2506 -12.6827 23.4935 -50.3796 0.461238 12.8704 -0.0520234 -13.1166 0.642186 -1.54561 5.93919 -22.6255 -51.1287 0.0 0.0 0.0 13.5363 26.473 -15.5465 7.09396 -0.356408 -1.02914 -19.0013 -19.0563 3.22733 -1.32568 0.0 0.0 -0.0 0.0 -0.0 -20.0977 20.6711 9.21348 -25.1328 -0.199516 -3.82087 34.5351 30.8985 5.40671 -8.13463 0.0 0.0 0.0 0.0 0.0 
3124.74693469 673.907 -1695.43392363 10.07130681 24.8898644391 -2.14503917543 -8.15242 0.0521536 0.98868 -8.15187 -0.0108612 0.989995 -8.15081 -0.353416 0.924833 -8.15195 -0.202928 0.969037 -9.31014 17.5015 11.2331 -9.12978 25.2505 15.094 -0.0 0.0 -0.0 7.8247 10.8656 14.8086 2.81877 -10.3698 50.3208 3.73584 -61.5988 2.22746 -35.949 -2.53101 3.7548 0.837764 -7.12477 2.63277 -0.0 0.0 -0.0 12.0196 20.2248 -23.9628 -12.6533 23.2797 -51.1194 0.602141 16.6091 -0.0878923 -10.9324 0.510874 -1.29892 5.91454 -21.8038 -50.7939 0.0 0.0 0.0 13.4528 25.7611 -15.8822 6.60547 -0.327794 -0.959729 -20.9167 -19.7081 3.57578 -2.83784 0.0 0.0 -0.0 0.0 -0.0 -19.5142 20.4906 9.40839 -26.957 -0.148539 -4.09617 35.1512 32.2324 5.57225 -7.18695 0.0 0.0 0.0 0.0 0.0 
3104.63067161 677.007 -1700.8096151 9.07733964008 25.939457594 -1.27282397562 -7.84163 0.0746764 0.961785 -7.84112 0.013327 0.964587 -7.8397 -0.316972 0.911122 -7.84082 -0.169106 0.949743 -5.41365 16.9159 8.41284 -5.15597 25.0051 11.4925 -0.0 0.0 -0.0 8.27284 11.138 15.5913 1.96005 -10.5528 50.8524 3.60062 -60.7073 2.10901 -37.7073 -2.7107 3.89118 0.653538 -5.27591 2.1704 -0.0 0.0 -0.0 11.6856 18.4149 -23.3177 -13.7728 24.4758 -50.5138 0.742561 20.1957 -0.132243 -10.0304 0.459416 -1.19564 5.306 -20.0561 -44.7681 0.0 0.0 0.0 13.6026 25.9862 -14.9355 5.93088 -0.289257 -0.863488 -16.9248 -17.1349 2.82351 -0.325464 0.0 0.0 -0.0 0.0 -0.0 -18.9414 20.5372 8.60081 -26.5456 -0.1608 -4.03423 28.241 28.0101 4.47165 -10.2154 0.0 0.0 0.0 0.0 0.0 
3063.90394153 684.272 -1709.34549047 6.39265681177 29.3819107637 0.0838631981412 -7.04694 0.356334 0.816635 -7.04662 0.303649 0.837652 -7.04106 0.011705 0.89091 -7.04214 0.152255 0.877882 -4.33688 15.424 5.28323 -4.12722 24.3167 7.90374 -0.0 0.0 -0.0 8.60509 10.2556 16.2604 -0.075185 -12.3413 51.1022 3.25949 -58.2158 1.81514 -40.0953 -2.9613 4.06749 0.0469988 -2.90764 -0.913804 -0.0 0.0 -0.0 11.6517 15.1614 -23.3979 -15.6375 26.1169 -49.3739 1.00348 26.4311 -0.235657 -9.03166 0.404346 -1.08036 4.02957 -19.0551 -34.182 0.0 0.0 0.0 13.4245 25.4583 -12.2808 5.34621 -0.256778 -0.779721 -11.6321 -13.9445 1.8831 2.56049 -0.0 -0.0 -0.0 0.0 -0.0 -17.4929 19.1712 8.35695 -23.6476 -0.234526 -3.59565 19.5608 25.5416 3.17797 -9.40906 0.0 0.0 0.0 0.0 0.0 
